# xmcd
#
# Track frame offsets: 
#        150
#        16467
#        30555
#        32754
#        45357
#        53547
#        55601
#        77014
#        88272
#        106265
#        117649
#        131034
#        137846
#        153773
#        160513
#        169363
#        189319
#        219537
#        221973
#        223710
#        225898
#        227980
#        230626
#        233211
#        240489
#        243737
#        245992
#        249447
#        251804
#        256514
#        259208
#        261698
#        264388
#        268140
#        273717
#
# Disc length: 3909 seconds
#
# Revision: 1
# Processed by: cddbd v1.5.2PL0 Copyright (c) Steve Scherf et al.
# Submitted via: ExactAudioCopyFreeDBPlugin 1.0
#
DISCID=020f4323
DTITLE=Christian Brembeck - Der Galante Stil - Mozart und seine Zeitge
DTITLE=nossen
DYEAR=2006
DGENRE=Organ
TTITLE0=Mozart - 3 Marches, K. 408- No 1 in C major (K. 383e)
TTITLE1=Mozart - Adagio in C major, K. 356
TTITLE2=Mozart - 2 Kleine Fuguen, K. 154 a - 2 Kleine Fuguen, K. 154 a
TTITLE2=Versette in G major
TTITLE3=Mozart - Trio (Fuga a 3), K. 443
TTITLE4=Mozart - Gigue in G major, K. 574, 'Leipziger Gigue'
TTITLE5=Mozart - 2 Kleine Fuguen, K. 154 a - 2 Kleine Fuguen, K. 154 a
TTITLE5=Versette in D major
TTITLE6=Knecht - Kleines Oboenkonzert in B major
TTITLE7=Knecht - Nun danket alle Gott
TTITLE8=Knecht - Mehrstimmige Fantasie in A major
TTITLE9=Grünberger - Neue Pastorel-Orgelstucke in B major - I. Praelud
TTITLE9=ium
TTITLE10=Grünberger - Neue Pastorel-Orgelstucke in B major - II. Fuga 
TTITLE10=nach der Epistel
TTITLE11=Grünberger - Neue Pastorel-Orgelstucke in B major - III. Sanc
TTITLE11=tus
TTITLE12=Kuchar - Andante in A minor
TTITLE13=Kuchar - Pastorale in C major
TTITLE14=Mozart - Funeral March in C minor, K. 453a
TTITLE15=Mozart, Leopold - Variations in F major
TTITLE16=Mozart - Andante in F major, K. 616
TTITLE17=Vogler - 112 Petits preludes - No. 19 in D major
TTITLE18=Vogler - 112 Petits preludes - No. 20 in D major
TTITLE19=Vogler - 112 Petits preludes - No. 21 in D major
TTITLE20=Vogler - 112 Petits preludes - No. 24 in D major
TTITLE21=Vogler - 112 Petits preludes - No. 28 in D major
TTITLE22=Vogler - 112 Petits preludes - No. 29 in D major
TTITLE23=Rinck - Introduction, Variations and Finale on Mozart's Ah vo
TTITLE23=us dirai-je, Maman, K. 265 - Introduction
TTITLE24=Rinck - Introduction, Variations and Finale on Mozart's Ah vo
TTITLE24=us dirai-je, Maman, K. 265 - Theme
TTITLE25=Rinck - Introduction, Variations and Finale on Mozart's Ah vo
TTITLE25=us dirai-je, Maman, K. 265 - Variation 1
TTITLE26=Rinck- Introduction, Variations and Finale on Mozart's Ah vou
TTITLE26=s dirai-je, Maman, K. 265 - Variation 2
TTITLE27=Rinck - Introduction, Variations and Finale on Mozart's Ah vo
TTITLE27=us dirai-je, Maman, K. 265 - Variation 3
TTITLE28=Rinck - Introduction, Variations and Finale on Mozart's Ah vo
TTITLE28=us dirai-je, Maman, K. 265 - Variation 4
TTITLE29=Rinck - Introduction, Variations and Finale on Mozart's Ah vo
TTITLE29=us dirai-je, Maman, K. 265 - Variation 5
TTITLE30=Rinck - Introduction, Variations and Finale on Mozart's Ah vo
TTITLE30=us dirai-je, Maman, K. 265 - Variation 6
TTITLE31=Rinck - Introduction, Variations and Finale on Mozart's Ah vo
TTITLE31=us dirai-je, Maman, K. 265 - Variation 7
TTITLE32=Rinck - Introduction, Variations and Finale on Mozart's Ah vo
TTITLE32=us dirai-je, Maman, K. 265 - Variation 8
TTITLE33=Rinck - Introduction, Variations and Finale on Mozart's Ah vo
TTITLE33=us dirai-je, Maman, K. 265 - Variation 9
TTITLE34=Rinck - Introduction, Variations and Finale on Mozart's Ah vo
TTITLE34=us dirai-je, Maman, K. 265 - Finale
EXTD=YEAR: 2006
EXTT0=
EXTT1=
EXTT2=
EXTT3=
EXTT4=
EXTT5=
EXTT6=
EXTT7=
EXTT8=
EXTT9=
EXTT10=
EXTT11=
EXTT12=
EXTT13=
EXTT14=
EXTT15=
EXTT16=
EXTT17=
EXTT18=
EXTT19=
EXTT20=
EXTT21=
EXTT22=
EXTT23=
EXTT24=
EXTT25=
EXTT26=
EXTT27=
EXTT28=
EXTT29=
EXTT30=
EXTT31=
EXTT32=
EXTT33=
EXTT34=
PLAYORDER=
